
<svg version="1.0" xmlns="http://www.w3.org/2000/svg"
 width="1280.000000pt" height="790.000000pt" viewBox="0 0 1280.000000 790.000000"
 preserveAspectRatio="xMidYMid meet">

<g transform="translate(0.000000,790.000000) scale(0.100000,-0.100000)"
fill="#000000" stroke="none">
<path d="M9367 7881 c-60 -31 -125 -84 -137 -113 -12 -27 -5 -52 25 -88 7 -8
15 -57 19 -107 l6 -93 -31 0 c-30 0 -31 0 -27 47 2 36 -1 48 -12 50 -8 2 -117
-86 -242 -196 -268 -234 -321 -275 -437 -338 -185 -100 -251 -152 -314 -249
-29 -44 -38 -50 -92 -64 -159 -43 -223 -107 -372 -375 -108 -194 -123 -215
-175 -246 -71 -42 -88 -63 -82 -101 5 -30 1 -38 -35 -71 -23 -20 -52 -37 -64
-37 -13 0 -44 15 -69 33 l-46 32 84 114 c46 63 84 117 84 121 0 4 -37 15 -82
25 -46 9 -86 19 -90 21 -3 2 4 31 18 64 34 83 17 140 -75 264 -55 74 -62 105
-35 157 l15 30 -59 -31 c-32 -16 -76 -31 -97 -33 l-38 -2 -30 89 -30 89 -126
-7 -126 -7 84 51 c75 46 88 50 125 45 34 -5 67 2 186 45 80 29 207 79 282 111
76 33 166 67 200 75 82 21 169 14 243 -20 32 -14 69 -26 84 -26 36 0 91 35 91
59 0 55 -47 118 -115 154 -56 30 -182 28 -335 -6 -269 -60 -477 -145 -755
-310 -95 -56 -111 -63 -119 -49 -18 34 -37 42 -65 28 -14 -8 -35 -24 -46 -36
-11 -12 -41 -39 -66 -61 l-45 -38 -62 46 c-44 32 -68 59 -81 88 -24 54 -53 65
-92 36 l-28 -21 -103 54 c-113 60 -466 210 -662 280 -149 54 -220 63 -371 46
-117 -13 -154 -26 -179 -62 -31 -43 -12 -124 30 -134 13 -3 72 7 132 22 l108
28 125 -33 c249 -66 554 -162 672 -213 66 -29 129 -51 139 -51 17 2 78 -73 78
-96 0 -16 -6 -14 -69 21 l-58 32 -106 -87 -107 -87 -80 0 c-125 0 -155 -23
-204 -158 -42 -118 -31 -178 38 -207 17 -7 77 -16 134 -20 56 -4 102 -11 102
-15 0 -4 -18 -15 -41 -25 -34 -16 -45 -17 -73 -7 -18 7 -44 12 -58 12 -29 0
-78 -35 -78 -55 0 -7 27 -60 60 -117 l60 -103 -125 -3 c-69 -1 -125 -4 -125
-6 0 -2 6 -19 14 -37 34 -84 38 -79 -58 -79 -47 0 -86 -4 -86 -8 0 -5 34 -48
75 -96 41 -48 75 -91 75 -94 0 -4 -32 -29 -70 -57 -39 -27 -70 -52 -70 -56 0
-3 27 -12 60 -19 60 -13 69 -23 28 -33 -120 -27 -326 -67 -347 -67 -25 0 -114
19 -631 134 -140 31 -358 79 -485 107 -415 91 -579 140 -970 287 -369 138
-554 197 -892 281 -589 148 -936 173 -1358 100 -276 -49 -430 -110 -545 -216
-146 -136 -196 -328 -130 -508 46 -125 247 -386 431 -559 98 -93 316 -281 409
-353 86 -66 434 -298 535 -356 122 -70 272 -138 465 -212 96 -36 177 -68 181
-71 4 -2 1 -20 -7 -39 -25 -60 -18 -143 17 -213 63 -127 257 -262 441 -306 71
-18 228 -33 228 -23 0 14 -82 47 -170 67 -126 30 -237 88 -316 166 -74 73
-101 122 -110 198 -9 74 14 137 61 166 59 37 250 127 324 154 93 33 224 66
438 110 94 19 225 49 292 66 125 32 240 38 248 13 5 -14 -110 -78 -398 -222
-235 -117 -358 -165 -541 -211 -82 -21 -154 -48 -233 -88 -63 -31 -115 -59
-115 -62 0 -4 6 -14 13 -24 12 -16 23 -14 177 38 207 69 335 106 369 106 15 0
36 -6 46 -14 19 -13 18 -16 -18 -92 l-37 -79 26 -23 27 -23 25 43 c39 66 91
127 124 144 16 8 125 47 241 85 172 57 217 69 249 64 68 -12 54 -50 -75 -202
-116 -137 -144 -180 -128 -196 24 -24 85 27 232 198 81 94 170 189 198 211 85
67 225 134 406 195 237 80 230 91 120 -201 -47 -123 -85 -226 -85 -229 0 -3
33 25 73 63 173 165 373 308 712 506 116 68 272 159 347 203 76 45 136 83 134
85 -2 2 -48 -13 -102 -33 -158 -59 -369 -172 -668 -360 -154 -96 -282 -172
-284 -170 -9 9 21 131 41 167 27 49 67 76 207 138 125 56 476 199 555 226 172
58 234 72 275 62 22 -6 40 -16 40 -22 0 -21 -39 -75 -67 -92 -49 -31 -224
-184 -343 -300 -63 -61 -129 -119 -147 -128 -21 -10 -58 -16 -106 -16 -104 0
-165 -21 -228 -78 -47 -42 -159 -181 -159 -197 0 -4 28 -4 61 0 70 8 77 -5 19
-39 -35 -21 -40 -20 -146 21 -6 2 -8 -10 -6 -33 l5 -38 -37 22 -37 22 -15 -36
c-28 -68 -28 -89 1 -112 21 -17 24 -24 16 -40 -10 -18 -193 -312 -268 -430
l-33 -52 -30 15 c-39 20 -54 54 -46 98 4 20 60 111 141 227 74 106 135 197
135 201 0 4 -12 17 -26 28 -39 30 -92 27 -140 -7 -55 -41 -70 -60 -56 -74 23
-23 13 -78 -28 -145 -21 -36 -54 -109 -71 -162 -73 -218 -96 -250 -285 -397
-67 -52 -151 -125 -186 -162 -65 -70 -318 -368 -318 -375 0 -3 35 6 78 19 42
13 80 24 85 24 4 0 -11 -36 -33 -80 l-40 -80 22 -9 c18 -7 42 1 118 41 176 94
223 134 405 348 48 58 143 161 210 230 114 117 125 133 182 246 71 144 159
278 280 429 200 249 250 287 413 304 195 22 338 80 443 183 62 61 105 94 111
87 2 -2 0 -33 -5 -69 -5 -35 -8 -68 -6 -73 1 -4 37 24 79 63 69 64 98 78 98
49 0 -5 -38 -57 -84 -116 -86 -111 -101 -149 -42 -114 91 54 126 72 126 63 0
-5 -25 -47 -55 -92 -30 -45 -55 -89 -55 -96 0 -7 12 -21 26 -30 24 -16 31 -16
120 0 107 21 107 21 111 9 2 -5 -69 -44 -158 -86 l-161 -77 -69 61 -68 61
-113 -42 c-177 -67 -202 -83 -319 -201 -242 -244 -456 -532 -570 -764 -93
-189 -90 -226 22 -259 66 -19 113 -55 100 -75 -8 -13 -28 -9 -131 24 -91 29
-126 36 -139 28 -13 -8 -16 -29 -17 -114 l0 -104 -98 -280 c-54 -154 -107
-311 -118 -350 -32 -116 -9 -219 64 -280 39 -33 119 -72 166 -81 20 -4 40 -17
49 -31 16 -24 15 -28 -9 -72 -14 -25 -34 -73 -43 -106 -25 -86 -62 -150 -106
-180 -32 -23 -45 -44 -87 -147 l-49 -120 -28 36 c-17 22 -32 33 -37 28 -5 -5
-11 -49 -14 -98 -5 -78 -3 -93 15 -122 32 -51 79 -66 183 -59 48 3 99 12 114
19 35 18 83 103 67 119 -9 9 -19 9 -43 -1 -17 -7 -33 -10 -36 -8 -2 3 -3 70
-2 149 l3 144 24 -52 c15 -35 30 -53 41 -53 15 0 18 13 22 95 2 52 7 97 10
101 4 3 21 1 39 -5 18 -6 34 -9 37 -7 2 3 -4 43 -13 91 -19 93 -16 115 10 66
8 -17 17 -31 19 -31 2 0 46 60 98 132 97 136 160 264 222 450 45 133 85 419
87 623 0 44 4 89 8 100 4 11 28 31 52 45 38 22 51 39 96 130 94 189 162 435
198 715 9 72 22 140 30 151 7 12 28 24 45 28 32 6 110 -2 110 -12 0 -3 -36
-44 -80 -93 -44 -48 -80 -90 -80 -93 0 -3 18 -6 39 -6 l39 0 -5 -75 c-9 -118
12 -103 96 70 85 175 84 174 255 186 67 5 162 13 211 18 264 28 793 22 1170
-14 308 -29 540 -55 577 -65 20 -6 47 -23 61 -39 26 -32 131 -315 167 -451
l22 -85 -26 -75 c-15 -41 -30 -78 -34 -81 -4 -4 -40 -1 -81 8 -68 14 -106 13
-465 -6 -427 -23 -655 -26 -901 -11 -88 5 -324 14 -525 20 -464 13 -496 16
-527 46 -20 20 -23 33 -23 101 0 43 4 107 9 143 5 36 6 82 3 102 -7 37 -7 37
-30 20 -20 -16 -26 -38 -48 -182 -51 -343 -64 -729 -31 -888 17 -77 106 -381
199 -674 44 -139 234 -538 309 -650 91 -134 202 -230 350 -303 68 -33 134 -84
320 -246 86 -75 109 -89 142 -89 37 0 50 7 202 115 72 50 191 129 265 175 74
46 158 101 187 122 133 97 217 207 292 383 24 55 83 182 132 281 70 144 96
209 125 315 39 146 83 288 138 444 51 146 68 279 70 540 1 206 2 222 22 255
20 32 21 43 14 125 -6 73 -4 92 7 100 12 9 10 13 -12 23 -26 12 -26 13 -11 37
28 43 20 76 -29 125 -28 27 -45 53 -45 67 0 24 5 25 73 6 9 -2 17 0 17 4 0 11
-60 68 -118 112 -60 46 -76 81 -69 153 l5 58 -51 0 c-29 0 -392 16 -807 35
-415 18 -884 40 -1042 46 -159 7 -288 16 -288 19 0 3 38 23 84 44 46 20 109
59 141 86 32 27 74 57 94 67 51 25 165 22 334 -11 82 -15 173 -26 224 -26 58
0 107 -7 155 -21 99 -30 187 -23 343 30 65 23 127 41 137 41 19 0 36 26 24 37
-3 4 -25 9 -49 13 l-42 6 65 34 c49 25 77 33 114 32 55 -1 246 -60 246 -76 -1
-34 -17 -35 -108 -6 -109 36 -133 37 -158 9 -19 -21 -18 -21 12 -48 17 -15 73
-44 125 -64 82 -32 103 -45 154 -98 62 -63 119 -98 195 -119 53 -15 242 -39
253 -33 20 12 0 33 -78 82 -47 30 -82 58 -78 61 5 3 32 17 61 30 48 22 57 23
99 12 67 -18 153 -63 170 -89 22 -33 9 -67 -39 -103 -35 -26 -51 -31 -85 -28
-24 2 -43 2 -43 0 0 -13 64 -82 75 -82 26 0 65 -23 81 -47 8 -14 42 -109 75
-211 55 -175 100 -355 165 -669 l27 -131 -27 -94 c-38 -136 -47 -280 -38 -598
l8 -275 32 -68 c37 -80 64 -116 187 -252 50 -55 97 -109 105 -120 8 -12 40
-33 70 -49 30 -15 69 -43 87 -62 39 -42 58 -43 81 -4 l18 30 17 -54 c10 -30
27 -66 39 -81 18 -23 27 -26 68 -23 47 3 47 3 104 -65 65 -76 60 -91 -19 -57
-26 11 -50 18 -53 16 -9 -10 9 -75 29 -100 39 -50 176 -70 240 -35 34 18 57
86 65 190 6 89 5 98 -12 107 -11 6 -79 26 -152 46 -73 20 -152 46 -175 57 -39
20 -305 275 -296 284 3 2 36 9 74 15 95 15 144 44 173 100 21 41 23 56 20 165
-5 142 -52 535 -79 653 -27 116 -25 173 7 227 21 36 23 48 14 65 -15 27 -50
40 -109 40 -90 0 -141 11 -141 30 0 14 18 23 69 39 78 24 124 57 139 100 8 24
3 44 -38 140 -68 155 -161 339 -212 414 -125 186 -358 470 -439 536 -100 80
-232 130 -345 131 -31 0 -55 9 -93 35 -40 27 -60 35 -96 35 -56 0 -88 16 -139
69 -37 37 -75 132 -56 139 4 1 40 -13 81 -33 40 -19 85 -35 99 -35 25 0 110
34 110 44 0 3 -31 25 -69 50 -90 58 -105 86 -96 176 6 62 9 69 32 75 13 3 23
10 21 14 -2 5 -49 49 -104 99 -72 64 -106 103 -118 132 -30 74 -19 74 70 -4
94 -83 126 -94 141 -51 8 26 9 25 131 -66 67 -50 122 -95 122 -100 0 -5 -24
-9 -52 -9 -60 -1 -78 -9 -137 -63 l-42 -38 26 -34 c18 -22 42 -39 73 -49 62
-19 182 -43 257 -51 162 -16 204 -56 290 -267 32 -78 84 -200 115 -271 52
-116 63 -133 106 -166 26 -20 86 -81 132 -136 273 -324 342 -388 507 -468 103
-51 155 -69 392 -135 166 -47 243 -82 243 -110 0 -10 -14 -11 -62 -6 l-61 7
24 -44 c19 -34 33 -46 64 -55 96 -29 201 -4 233 56 18 34 11 208 -9 221 -8 5
-37 6 -66 3 -65 -8 -107 6 -208 67 -44 27 -98 55 -121 63 -22 7 -81 36 -130
64 -49 28 -116 58 -149 67 -102 29 -133 52 -192 144 -30 46 -71 104 -91 128
-48 58 -166 154 -242 195 -52 29 -58 36 -53 59 7 37 -13 134 -39 186 -32 64
-127 148 -252 222 l-108 65 36 18 c94 48 60 108 -97 168 -115 44 -158 72 -187
119 -19 32 -43 51 -100 81 -41 22 -124 78 -184 125 -110 86 -146 101 -165 68
-8 -15 -11 -15 -25 -3 -10 7 -26 26 -37 41 l-20 28 120 61 c67 33 127 60 135
60 18 0 478 -233 621 -316 61 -34 122 -75 137 -91 15 -15 45 -66 68 -112 39
-78 45 -111 20 -111 -26 0 -359 227 -435 297 -134 122 -322 249 -342 230 -3
-3 0 -21 6 -39 10 -30 35 -48 209 -153 159 -96 208 -131 256 -183 33 -35 103
-97 155 -136 119 -91 214 -182 275 -265 54 -75 51 -81 -39 -81 -71 0 -74 3
100 -94 241 -133 674 -278 958 -320 241 -36 565 -14 762 51 84 27 275 120 311
150 59 50 70 127 41 279 l-14 71 121 6 c223 10 386 69 593 214 60 42 225 153
368 248 143 94 305 207 360 251 55 44 156 122 225 174 364 275 520 540 452
767 -68 222 -270 373 -612 457 -312 76 -602 83 -1313 30 -91 -6 -161 -24 -582
-144 -618 -177 -1426 -392 -1705 -454 -258 -57 -663 -112 -925 -125 -104 -6
-191 -9 -193 -7 -1 2 34 16 79 32 173 60 227 145 147 232 -29 30 -75 29 -118
-3 -58 -42 -60 -39 -60 95 0 108 7 139 25 111 9 -15 201 136 265 208 31 36 91
104 132 151 92 105 168 168 267 219 113 59 125 75 123 164 -3 95 3 102 172
217 125 85 349 275 536 455 47 45 137 116 200 158 63 41 126 84 139 95 35 28
22 50 -31 54 l-43 3 80 33 c97 41 148 74 164 108 14 31 15 183 1 219 -10 27
-62 55 -103 55 -12 0 -40 -9 -60 -19z m-647 -866 c10 -12 -1 -22 -62 -61 -40
-26 -135 -87 -210 -136 -75 -48 -139 -88 -143 -88 -11 0 26 61 61 99 47 53
173 138 253 172 76 33 84 34 101 14z m-2310 -355 c0 -66 3 -120 8 -120 4 0 24
11 44 25 20 14 39 25 43 25 3 0 -9 -27 -26 -61 -16 -34 -28 -63 -26 -66 3 -2
24 5 46 17 67 34 94 42 88 28 -3 -7 -17 -39 -31 -71 l-26 -58 32 -13 c69 -29
77 -29 102 -2 17 19 25 41 28 83 6 67 22 83 88 83 l46 0 13 -80 c15 -88 11
-114 -20 -153 -23 -30 -39 -35 -39 -12 0 17 -2 17 -93 6 -61 -8 -73 -7 -103
11 -42 25 -74 19 -127 -24 -21 -16 -40 -28 -42 -26 -2 2 10 25 26 52 17 26 29
49 27 51 -2 2 -53 -13 -115 -32 l-111 -36 -42 36 c-36 31 -46 35 -63 25 -34
-18 -119 -38 -163 -38 -44 0 -144 26 -144 38 0 4 24 20 54 35 82 43 101 97 75
217 -6 28 -9 53 -7 56 3 2 38 -11 79 -30 41 -19 105 -48 142 -65 l69 -31 -41
-73 c-23 -41 -41 -77 -41 -81 0 -11 115 -6 131 7 9 7 34 42 57 78 l42 66 -22
41 c-21 38 -22 43 -9 89 8 26 16 65 19 86 2 23 9 37 18 37 11 0 14 -24 14
-120z m1732 -106 c16 -27 27 -56 25 -65 -3 -21 -341 -339 -361 -339 -8 0 -18
5 -21 10 -9 15 14 119 37 165 27 53 115 178 169 238 71 82 102 80 151 -9z
m-6777 -219 c261 -12 611 -68 825 -132 131 -39 260 -97 260 -117 0 -24 -76
-93 -123 -111 -43 -16 -52 -16 -174 0 -153 20 -269 52 -363 100 -198 100 -303
115 -766 113 l-360 -1 -42 24 c-23 13 -42 28 -42 32 0 14 106 57 182 73 84 18
300 33 403 28 39 -2 129 -6 200 -9z m-830 -150 c20 -25 55 -55 78 -68 42 -22
47 -22 477 -22 472 0 447 2 623 -62 90 -33 97 -38 97 -63 0 -24 -8 -30 -66
-55 -81 -35 -183 -100 -287 -186 -141 -115 -145 -117 -225 -135 -154 -33 -535
-171 -559 -202 -7 -9 -13 -28 -13 -43 0 -52 35 -46 337 57 l278 96 87 -5 c139
-7 177 -44 214 -207 29 -130 67 -189 165 -256 122 -82 127 -151 20 -254 -32
-30 -88 -81 -125 -114 -58 -50 -116 -130 -103 -142 12 -13 105 36 178 93 107
86 176 127 253 153 61 20 503 122 670 155 114 22 153 13 196 -47 64 -88 61
-162 -13 -259 -22 -30 -45 -74 -52 -99 l-11 -45 -285 -109 c-261 -99 -291
-108 -369 -113 -65 -4 -105 0 -172 16 -189 45 -412 146 -607 274 -139 92 -180
123 -476 366 -389 321 -480 415 -650 674 -89 136 -115 196 -115 270 0 130 74
228 242 320 133 74 161 75 213 12z m6063 -136 c27 -14 57 -40 79 -70 34 -48
35 -48 59 -32 14 8 40 34 59 57 23 28 37 38 44 31 8 -8 -5 -32 -39 -79 -47
-64 -61 -96 -42 -96 4 0 36 9 70 21 56 19 69 29 124 95 58 71 62 74 80 58 10
-10 18 -21 18 -25 0 -5 -45 -42 -99 -83 -114 -86 -131 -107 -131 -155 0 -48
52 -125 96 -143 l34 -14 -85 -38 c-72 -33 -86 -42 -83 -60 3 -20 12 -22 133
-31 108 -8 130 -13 133 -26 3 -15 -13 -18 -115 -24 -195 -11 -192 -8 -74 -93
56 -41 101 -80 101 -88 0 -23 -31 -65 -54 -74 -29 -11 -78 11 -133 60 -25 22
-48 39 -49 37 -2 -2 1 -19 6 -38 13 -47 48 -93 116 -150 57 -48 112 -115 102
-125 -3 -3 -42 20 -87 50 -45 31 -87 56 -92 56 -6 0 -24 -8 -39 -17 l-29 -17
21 -28 c11 -16 38 -41 59 -55 38 -25 39 -27 39 -87 0 -76 31 -147 94 -214 38
-41 75 -102 61 -102 -2 0 -90 52 -195 115 -105 63 -192 115 -194 115 -2 0 1
-21 5 -47 13 -81 11 -92 -16 -99 -37 -9 -52 9 -59 74 -4 31 -18 82 -33 112
l-27 55 -16 -170 c-10 -93 -18 -171 -19 -173 0 -1 -35 23 -77 54 -105 80 -129
133 -104 225 7 25 7 46 0 64 -9 25 -14 27 -47 22 l-36 -6 7 77 c4 42 10 88 13
102 7 28 28 42 -176 -118 -94 -74 -131 -95 -131 -74 0 4 27 79 60 167 33 88
60 163 60 168 0 17 -59 5 -90 -18 -76 -56 -148 -55 -204 4 l-28 29 46 7 c25 4
49 11 51 15 8 14 -34 116 -55 135 -11 10 -41 23 -66 30 l-46 11 36 28 36 27
-31 60 c-17 34 -28 64 -25 67 9 8 53 -37 84 -85 37 -59 63 -71 108 -50 l35 17
-19 28 c-11 15 -29 36 -41 46 -30 27 -27 32 23 28 l45 -4 -28 76 c-51 135 -80
169 -125 148 l-25 -11 30 -73 c46 -109 51 -124 41 -113 -23 26 -163 217 -160
219 20 15 165 76 180 76 32 0 57 -19 77 -58 22 -43 40 -60 99 -92 41 -23 42
-23 56 -5 13 17 8 25 -46 87 -68 76 -68 76 6 130 33 24 49 28 105 28 55 0 74
5 116 30 57 34 85 37 120 14 21 -14 29 -14 87 4 86 27 160 27 216 1z m-3857
-63 c110 -47 230 -120 296 -180 29 -26 53 -51 53 -55 0 -9 -335 14 -419 29
-36 6 -73 16 -83 21 -21 11 -108 140 -108 159 0 7 15 26 32 42 30 28 37 30 90
25 33 -3 91 -20 139 -41z m8939 -6 c171 -9 274 -20 375 -41 75 -16 215 -60
215 -69 0 -4 -51 -17 -112 -30 -101 -21 -153 -24 -493 -30 -429 -9 -457 -12
-667 -89 -80 -29 -219 -42 -381 -34 l-137 6 -55 48 -55 48 27 14 c161 82 565
158 928 176 83 5 157 9 165 9 8 1 94 -3 190 -8z m-9605 -75 c33 -9 66 -18 74
-21 9 -3 -37 -39 -115 -92 -76 -51 -168 -124 -224 -179 -105 -100 -127 -113
-201 -113 -90 0 -149 41 -149 104 0 47 68 101 231 185 79 41 157 83 172 94 57
39 119 46 212 22z m346 -35 c25 -14 59 -82 59 -119 0 -38 -39 -85 -89 -104
-51 -21 -453 -53 -450 -37 1 9 190 165 246 202 84 58 187 83 234 58z m10056
-90 c168 -96 258 -253 233 -406 -26 -156 -192 -375 -430 -564 -208 -166 -1060
-742 -1177 -797 -96 -44 -180 -63 -290 -63 -116 0 -198 19 -343 80 -63 26
-173 71 -245 100 -71 29 -138 58 -147 65 -20 13 -88 100 -88 111 0 4 -18 24
-40 44 -60 55 -56 72 48 185 95 105 135 135 177 135 16 0 78 -13 139 -30 61
-16 192 -47 291 -70 113 -25 202 -51 240 -69 71 -35 158 -115 210 -194 40 -60
42 -62 63 -48 23 14 3 78 -46 150 -59 86 -82 137 -82 186 0 54 23 88 119 175
99 89 129 138 152 243 10 43 26 88 36 99 54 61 171 75 263 32 70 -33 549 -224
561 -224 5 0 17 16 26 35 29 60 15 72 -182 169 -198 96 -283 126 -359 126 -32
0 -61 7 -77 18 -14 9 -119 95 -233 191 -259 219 -257 213 -81 254 117 28 128
29 470 33 341 4 353 4 485 33 182 39 240 39 307 1z m-9027 -69 c129 -28 424
-91 655 -141 953 -206 1112 -240 1122 -240 5 0 18 36 29 80 10 44 23 80 29 80
25 0 195 -75 195 -86 0 -7 -22 -20 -49 -28 -97 -29 -142 -60 -172 -118 -23
-45 -25 -137 -5 -177 18 -34 83 -94 128 -117 38 -20 46 -16 -115 -59 -78 -22
-120 -29 -124 -22 -4 6 16 31 45 57 75 67 58 80 -47 34 -81 -35 -209 -68 -240
-62 -9 2 36 30 99 62 113 57 170 98 170 122 0 20 -62 43 -105 38 -76 -8 -631
-54 -838 -69 l-208 -15 -45 23 -45 23 42 34 c50 40 16 36 694 64 522 22 545
25 515 60 -11 15 -68 16 -584 10 -646 -7 -653 -7 -805 66 -101 49 -220 130
-435 298 -188 147 -187 146 -161 139 11 -3 126 -29 255 -56z m6863 38 c27 -12
47 -47 47 -81 0 -30 -81 -105 -127 -117 -43 -11 -180 -16 -329 -13 l-102 2 -7
27 c-8 32 18 58 95 97 51 26 220 83 265 89 63 8 135 7 158 -4z m-7473 -70 c41
-5 132 -13 203 -18 115 -9 134 -13 200 -45 83 -41 205 -140 259 -211 20 -27
35 -51 33 -53 -4 -5 -326 22 -626 53 -153 15 -237 28 -262 40 -63 30 -127 107
-127 153 0 27 38 68 83 87 33 15 78 14 237 -6z m8146 -69 c23 -10 79 -52 125
-95 46 -42 128 -106 182 -142 53 -36 97 -68 97 -72 0 -9 -68 -73 -100 -95 -15
-10 -45 -16 -77 -16 -57 0 -65 6 -273 172 l-85 68 -7 -32 c-12 -59 -40 -71
-143 -65 -155 10 -255 56 -319 145 l-31 44 46 43 c96 91 175 82 274 -31 31
-35 65 -69 75 -74 17 -9 18 -7 9 22 -14 49 -11 114 5 127 41 34 146 35 222 1z
m-8560 -86 c21 -15 62 -46 89 -70 28 -23 78 -58 110 -76 33 -19 70 -49 83 -68
23 -33 24 -41 18 -137 -7 -117 -19 -159 -50 -175 -11 -6 -93 -15 -181 -18
-151 -7 -167 -10 -285 -49 -161 -53 -232 -56 -283 -11 -19 16 -45 54 -57 82
-16 38 -43 72 -95 121 -117 107 -152 204 -102 278 52 77 172 109 517 138 174
15 193 14 236 -15z m7234 9 c-1 -12 -79 -71 -228 -171 -125 -84 -255 -173
-289 -197 -74 -52 -148 -81 -246 -96 -84 -13 -163 -8 -394 26 -155 23 -489 44
-715 45 -70 0 -78 2 -78 19 0 24 -36 16 455 96 220 36 456 75 525 86 69 11
258 54 420 94 162 41 331 81 375 89 160 31 175 31 175 9z m527 -56 c65 -14
193 -89 193 -114 0 -37 -27 -67 -111 -124 -176 -118 -255 -137 -430 -104 -61
12 -169 20 -309 24 -180 5 -215 8 -217 21 -3 15 143 113 366 248 l104 62 171
0 c102 0 196 -6 233 -13z m548 -222 c321 -91 380 -112 415 -146 43 -43 43
-107 0 -170 -73 -106 -248 -315 -274 -328 -34 -16 -80 -8 -410 70 -233 54
-268 71 -316 146 -63 98 -47 176 54 270 79 74 296 224 316 218 8 -2 105 -29
215 -60z m-7335 29 c263 -18 342 -28 389 -53 56 -28 74 -61 74 -129 -1 -104
15 -92 -308 -209 -297 -107 -496 -173 -520 -173 -41 0 -67 34 -136 178 -78
165 -99 226 -99 291 1 46 9 63 44 91 18 14 199 29 291 23 22 -2 141 -10 265
-19z m2130 -124 l0 -139 -32 6 c-68 12 -146 70 -168 123 -28 67 59 150 157
150 l43 0 0 -140z m1940 30 c10 -6 15 -27 15 -66 0 -57 -1 -58 -40 -81 -22
-12 -73 -37 -114 -54 -59 -25 -75 -28 -82 -17 -16 25 -9 35 50 67 49 26 62 38
72 69 28 88 55 110 99 82z m2265 -121 c281 -26 300 -30 321 -71 46 -88 20
-238 -60 -346 -73 -98 -129 -152 -159 -152 -15 0 -204 70 -420 155 -283 112
-398 162 -414 181 -30 33 -31 106 -4 150 26 42 76 57 276 84 88 12 167 23 175
24 8 2 24 2 35 0 11 -2 124 -13 250 -25z m-1635 -15 c293 -23 514 -49 653 -76
45 -8 63 -18 87 -45 17 -18 30 -37 30 -41 -1 -21 -80 -61 -134 -67 l-60 -8 35
-17 c20 -10 70 -20 124 -23 128 -9 211 -33 460 -136 293 -120 514 -232 572
-291 32 -32 40 -46 29 -48 -25 -5 -699 134 -938 194 -233 58 -513 146 -708
221 -118 45 -470 212 -470 222 0 3 4 12 9 20 7 11 74 -1 377 -67 203 -44 383
-83 400 -87 17 -3 44 -1 60 6 l29 12 -60 28 c-86 41 -95 43 -479 120 -311 62
-436 95 -436 114 0 4 24 4 53 1 28 -4 194 -18 367 -32z m-3185 -40 c-239 -116
-598 -225 -995 -303 -283 -55 -892 -146 -916 -137 -8 3 -14 14 -14 25 0 15 10
23 39 31 57 15 497 164 558 189 29 11 84 36 122 56 95 48 190 72 350 90 832
92 826 91 896 92 l50 1 -90 -44z m2660 -100 c14 -47 24 -88 22 -90 -6 -6 -160
80 -159 89 1 9 93 85 104 86 4 1 19 -38 33 -85z m-1824 -130 l91 -136 -33 -34
-33 -34 -33 32 c-42 41 -48 60 -29 97 l16 30 -114 77 c-135 91 -139 104 -30
104 l74 0 91 -136z m308 87 c11 -7 12 -20 1 -77 -13 -67 -12 -69 16 -77 3 -1
21 34 39 78 39 91 40 88 28 -87 -6 -94 -6 -96 -27 -87 -14 7 -31 7 -49 0 -22
-9 -27 -17 -27 -46 0 -73 45 -114 142 -130 45 -7 68 -36 68 -85 0 -30 -7 -42
-45 -74 -33 -27 -58 -63 -90 -127 -40 -78 -48 -88 -64 -80 -9 6 -23 17 -31 25
-20 25 -27 19 -41 -35 -12 -47 -31 -70 -46 -55 -3 3 18 58 48 123 l54 117 10
-38 c6 -20 14 -37 18 -37 4 1 12 1 17 1 6 0 10 43 10 110 0 100 -2 110 -18
110 -12 0 -25 -14 -37 -40 -11 -25 -26 -42 -39 -45 -30 -6 -222 -25 -251 -25
-41 0 -28 17 23 30 71 19 131 56 138 87 4 16 -1 54 -14 96 l-20 71 24 18 c35
28 68 90 104 196 18 50 35 92 39 92 3 0 12 -4 20 -9z m-1111 -128 c3 -17 -5
-24 -35 -33 -21 -7 -236 -84 -478 -172 -478 -174 -860 -303 -1080 -367 -166
-47 -418 -111 -439 -111 -46 0 -1 37 142 118 460 262 739 413 776 422 23 6
256 40 518 76 263 36 497 71 520 79 56 17 72 15 76 -12z m3030 -49 c699 -154
1180 -345 1590 -631 138 -96 281 -217 261 -221 -83 -16 -986 337 -1581 618
-275 130 -537 280 -490 280 7 0 106 -21 220 -46z m-2562 -216 c20 -18 43 -48
51 -66 12 -30 12 -38 -4 -70 -30 -60 -41 -61 -140 -14 -100 48 -124 51 -172
21 -27 -16 -36 -18 -42 -7 -17 26 -3 41 101 104 124 75 152 80 206 32z m1430
-126 c138 -134 155 -164 134 -238 -7 -24 -15 -44 -19 -44 -3 0 -18 33 -34 74
-33 90 -87 150 -147 166 -73 20 -75 13 -21 -77 41 -68 47 -84 36 -93 -8 -7
-19 -9 -24 -6 -18 12 -161 218 -161 234 0 19 83 102 101 102 8 0 68 -53 135
-118z m-378 -70 c29 -78 52 -145 52 -148 0 -7 -45 31 -137 116 l-73 66 46 63
c25 35 49 59 53 55 4 -5 31 -73 59 -152z m3005 27 c446 -149 909 -320 982
-364 51 -30 81 -62 144 -154 58 -84 64 -122 31 -177 -46 -73 -241 -170 -425
-210 -156 -35 -527 -27 -747 16 -107 21 -165 37 -308 89 -47 16 -130 40 -185
52 -112 24 -138 35 -212 90 -56 42 -136 154 -198 278 -32 65 -102 317 -90 329
7 7 392 -140 500 -192 131 -62 137 -69 345 -349 80 -108 147 -196 150 -196 3
0 13 6 23 13 17 13 8 29 -123 222 -93 137 -137 211 -131 217 7 7 53 -12 138
-55 70 -36 166 -78 213 -93 188 -62 312 -135 426 -251 69 -71 75 -75 111 -72
l38 4 -117 116 c-132 130 -138 144 -88 202 l30 34 -322 207 c-178 115 -327
211 -331 215 -4 4 -5 14 -1 23 5 14 21 20 72 26 7 0 41 -8 75 -20z m-4483
-140 c-17 -41 -72 -86 -121 -99 -23 -6 -43 -9 -45 -7 -3 2 35 39 83 81 88 76
106 81 83 25z m1733 -114 c16 -11 11 -17 -50 -50 -37 -21 -71 -40 -75 -42 -5
-2 -8 37 -8 87 l0 91 58 -37 c31 -20 65 -42 75 -49z m-294 38 c28 -106 41
-177 33 -185 -16 -16 -109 -27 -146 -17 -38 10 -132 98 -118 110 7 6 118 49
128 49 3 0 19 -30 36 -66 20 -42 34 -62 40 -56 6 6 8 52 6 106 -3 100 4 122
21 59z m-726 -40 c19 -5 -27 -40 -146 -112 l-39 -24 27 52 c14 29 30 64 36 78
9 24 12 25 57 19 26 -4 55 -10 65 -13z m2552 -342 c22 -10 52 -31 66 -47 22
-25 99 -149 99 -159 0 -11 -77 -55 -96 -55 -11 0 -30 10 -41 23 -20 22 -133
233 -133 249 0 15 64 8 105 -11z m-3359 -235 c12 -69 -64 -467 -126 -657 -47
-143 -118 -295 -155 -329 -34 -32 -89 -33 -131 -3 -17 13 -81 47 -141 77 -173
86 -173 84 27 386 67 102 151 221 185 265 111 141 278 291 327 295 4 0 10 -15
14 -34z m3137 -145 c28 -11 101 -90 210 -226 168 -210 310 -462 311 -553 1
-45 -1 -47 -39 -67 -22 -11 -69 -35 -105 -55 -113 -61 -145 -71 -193 -61 -27
7 -53 22 -73 44 -35 38 -49 90 -144 531 -62 290 -65 311 -50 365 12 46 17 47
83 22z m496 -23 c57 -28 180 -144 227 -215 48 -72 76 -147 72 -191 l-3 -36
-212 224 c-175 183 -211 226 -201 237 15 18 54 11 117 -19z m-4894 -440 c-120
-144 -219 -264 -220 -266 -1 -1 -14 3 -29 9 -24 11 -26 17 -26 71 l0 58 222
220 222 220 24 -24 25 -24 -218 -264z m3965 -387 c18 -75 8 -274 -19 -376 -30
-114 -93 -238 -155 -301 l-51 -53 58 -17 c32 -10 60 -21 63 -25 6 -11 -110
-336 -156 -435 -35 -75 -41 -82 -86 -103 -89 -40 -98 -46 -121 -80 -40 -59
-48 -102 -33 -180 15 -81 8 -104 -68 -236 -148 -252 -394 -347 -782 -301 -75
8 -158 13 -187 10 -64 -8 -173 10 -238 40 -71 33 -153 103 -205 176 -25 35
-91 125 -147 200 -56 74 -105 148 -108 163 l-7 27 108 0 108 0 -33 34 c-20 21
-47 37 -70 41 -106 20 -200 98 -251 208 -28 61 -130 384 -130 412 0 30 27 14
45 -25 10 -22 22 -40 28 -40 25 0 126 64 136 86 25 57 4 87 -69 99 -99 15
-174 65 -212 139 -28 54 -40 211 -32 409 6 153 7 158 32 177 20 16 40 20 111
20 104 0 677 -32 1101 -61 345 -24 359 -24 946 35 290 29 324 35 350 55 l28
22 17 -33 c9 -18 22 -57 29 -87z m-3191 -102 c82 -17 91 -36 91 -188 0 -279
-57 -532 -170 -749 -79 -153 -51 -145 -252 -73 -185 67 -228 95 -228 148 0 45
185 676 216 735 8 15 34 41 59 58 61 42 110 59 227 79 4 0 30 -4 57 -10z
m3959 -147 c16 -12 35 -35 41 -51 8 -18 27 -35 51 -46 48 -22 104 -79 124
-127 9 -20 23 -81 31 -135 9 -54 29 -165 44 -248 42 -227 26 -349 -56 -427
-37 -35 -63 -44 -198 -68 -145 -26 -157 -25 -194 6 -35 29 -67 119 -102 286
-28 133 -31 378 -6 513 36 197 75 291 132 316 31 14 100 4 133 -19z m-4445
-1568 c13 -5 12 -14 -4 -66 -25 -83 -35 -92 -88 -78 -47 12 -47 8 18 93 44 58
49 61 74 51z m2442 -449 c-44 -19 -95 -37 -113 -41 -46 -9 -102 10 -137 46
l-29 30 180 0 179 -1 -80 -34z"/>
<path d="M6397 5973 c-10 -9 -8 -823 1 -823 8 0 26 74 63 248 l11 52 49 0 c27
0 49 4 49 8 0 4 -21 28 -46 52 -25 25 -53 58 -61 74 -16 32 -19 129 -7 244 8
76 -10 152 -36 152 -9 0 -20 -3 -23 -7z"/>
<path d="M6505 5131 c-9 -16 12 -119 35 -166 23 -48 72 -100 112 -121 22 -11
28 -12 28 -2 0 39 -163 308 -175 289z"/>
<path d="M10018 3835 c-7 -33 -22 -27 280 -117 205 -61 245 -70 252 -58 6 8
10 20 10 25 0 6 -116 46 -257 89 -142 43 -263 81 -269 83 -6 2 -14 -8 -16 -22z"/>
<path d="M6711 1724 c-6 -22 -14 -54 -17 -72 -6 -32 -6 -32 34 -32 22 0 53 -3
69 -6 23 -5 32 -2 37 12 5 13 -8 33 -53 78 l-59 59 -11 -39z"/>
<path d="M5375 1713 c4 -21 8 -38 8 -39 6 -4 279 -65 294 -66 29 -2 173 62
173 77 0 23 -92 40 -305 55 -195 14 -178 17 -170 -27z"/>
<path d="M5946 1693 c-38 -19 -65 -38 -60 -42 19 -18 164 -60 164 -48 0 7 -8
37 -18 69 l-17 56 -69 -35z"/>
<path d="M6383 1678 c-34 -29 -62 -55 -62 -58 -1 -7 173 -79 178 -74 5 5 -42
184 -49 184 -3 0 -33 -24 -67 -52z"/>
<path d="M6980 1708 c-91 -23 -119 -46 -102 -82 6 -13 19 -27 30 -30 22 -7
125 15 167 35 34 17 53 63 35 84 -16 19 -37 18 -130 -7z"/>
<path d="M6145 1033 c-51 -13 -74 -68 -32 -78 169 -39 151 -43 162 38 l6 47
-58 -1 c-32 -1 -67 -4 -78 -6z"/>
<path d="M3370 7642 c-51 -28 -100 -96 -100 -139 0 -30 12 -48 85 -126 48 -52
90 -107 96 -127 7 -21 55 -81 117 -148 84 -91 117 -119 161 -138 68 -30 79
-40 151 -134 32 -41 143 -165 248 -275 106 -110 199 -215 208 -234 14 -28 15
-41 5 -66 -28 -78 -11 -93 134 -125 201 -44 373 -90 505 -135 148 -51 223 -59
275 -33 36 19 122 94 115 100 -153 133 -433 335 -535 386 -115 57 -244 78
-332 53 l-31 -9 -52 111 c-72 155 -125 233 -233 344 -113 117 -133 129 -194
114 -58 -15 -87 -1 -133 63 -19 27 -68 82 -107 122 -40 41 -73 78 -73 84 0 6
-22 24 -50 41 -53 32 -73 71 -63 123 5 24 9 26 59 26 59 0 61 6 22 63 -46 66
-204 100 -278 59z m665 -652 c3 -10 56 -72 116 -136 116 -123 153 -180 164
-255 6 -42 5 -46 -20 -59 -26 -14 -29 -13 -54 16 -14 17 -89 100 -166 184 -77
83 -141 155 -143 159 -3 9 78 111 89 111 4 0 10 -9 14 -20z m627 -586 c40 -15
124 -50 188 -79 88 -40 120 -60 138 -86 22 -32 26 -75 7 -73 -6 1 -133 37
-282 80 -305 88 -299 84 -227 152 42 40 77 41 176 6z"/>
<path d="M5120 5717 c0 -21 43 -81 61 -85 17 -3 99 53 99 67 0 10 -25 16 -107
26 -43 6 -53 4 -53 -8z"/>
<path d="M3300 3576 l-115 -11 -3 -33 -3 -34 38 6 c53 8 294 36 316 36 11 0
17 8 17 25 0 24 -2 25 -67 24 -38 -1 -120 -7 -183 -13z"/>
<path d="M2870 3555 c0 -39 52 -57 136 -49 42 5 68 12 71 21 9 23 12 22 -164
47 -41 6 -43 5 -43 -19z"/>
<path d="M2952 2401 c-85 -91 -200 -143 -352 -160 -47 -5 -92 -12 -101 -16
-12 -5 -18 3 -25 35 l-9 41 -36 -30 c-48 -40 -79 -107 -79 -172 0 -47 4 -55
38 -89 48 -45 134 -74 223 -75 56 0 71 4 107 29 54 37 43 56 -34 56 -37 0 -54
4 -54 13 0 6 55 34 121 62 191 78 201 88 223 201 l13 69 23 -47 c25 -50 52
-62 68 -30 5 9 13 47 17 85 l7 67 -57 0 c-52 0 -58 -3 -93 -39z m-318 -243
c-40 -72 -90 -108 -149 -108 -39 0 -42 8 -20 50 25 49 61 70 122 70 40 0 52
-3 47 -12z"/>
</g>
</svg>
